<?xml version="1.0" encoding="UTF-8"?>
<svg version="1.1" xmlns="http://www.w3.org/2000/svg" viewBox="0 0 1077 696">
<path d="M0 0 C-0.65976416 4.87045801 -1.9972938 9.37025013 -3.58203125 14.00390625 C-3.9652076 15.14351051 -3.9652076 15.14351051 -4.35612488 16.30613708 C-5.17063521 18.72639416 -5.99120906 21.14453637 -6.8125 23.5625 C-7.88386893 26.72967612 -8.95255542 29.8977476 -10.01953125 33.06640625 C-10.27695099 33.82998444 -10.53437073 34.59356262 -10.79959106 35.38027954 C-12.98308409 41.88577785 -15.03137886 48.42598964 -17 55 C-11.79151499 54.7110011 -6.58319846 54.41911097 -1.375 54.125 C-0.59333466 54.08086975 0.18833069 54.0367395 0.99368286 53.99127197 C13.58643797 53.27753604 26.17173635 52.48390491 38.75439453 51.60986328 C39.91696777 51.52978027 41.07954102 51.44969727 42.27734375 51.3671875 C43.79702759 51.26059814 43.79702759 51.26059814 45.34741211 51.15185547 C47.56189322 51.02508076 49.78189306 51 52 51 C50.59302227 56.17035718 48.99726592 61.1699462 46.875 66.09375 C43.09384315 75.06007841 39.66598163 84.16301292 36.1875 93.25 C33.815625 99.4375 31.44375 105.625 29 112 C52.43 112 75.86 112 100 112 C97.15122298 117.12779863 94.31598008 122.19709067 91.31054688 127.22412109 C87.48101745 133.6321404 83.85069881 140.05536328 80.59375 146.77734375 C79.03438396 149.93047361 77.39577361 153.02784645 75.73461914 156.12792969 C64.09258505 177.90638381 53.72297554 200.30781062 44 223 C43.62117676 223.87897949 43.24235352 224.75795898 42.85205078 225.66357422 C39.04524444 234.50775524 35.40951944 243.38696074 32.08129883 252.42260742 C29.60042242 259.14715553 26.81176751 265.73196271 24.01171875 272.328125 C21.41507763 278.61135535 19.28051146 285.02579532 17.19360352 291.49267578 C15.68792137 296.11615402 13.92690883 300.53099508 12 305 C11.09505851 307.57771213 10.21961221 310.15297543 9.375 312.75 C8.85320718 314.33735224 8.33104724 315.92458383 7.80859375 317.51171875 C7.5235498 318.37974121 7.23850586 319.24776367 6.94482422 320.14208984 C5.90322589 323.29272293 4.84539074 326.43762166 3.78515625 329.58203125 C-0.17913548 341.35543009 -4.05908299 353.1233291 -7.44824219 365.07568359 C-8.00570442 367.0198948 -8.58169267 368.95764452 -9.1640625 370.89453125 C-15.62050775 392.40289256 -21.38002275 414.16369042 -26.390625 436.0546875 C-27.53123766 441.02227972 -28.71839756 445.97695357 -29.9375 450.92578125 C-30.1055011 451.60971451 -30.2735022 452.29364777 -30.44659424 452.99830627 C-31.13545823 455.80213475 -31.8244816 458.6058985 -32.52050781 461.40795898 C-35.03701963 471.55101815 -37.17862103 481.70903636 -39 492 C-42.72527828 493.24175943 -43.89291947 492.57318603 -47.5625 491.3125 C-53.63071803 489.34826035 -59.69641755 487.86714109 -65.93969727 486.5715332 C-71.38548092 485.42177696 -76.74096442 484.01127727 -82.11361694 482.55892944 C-88.87079892 480.74460666 -95.67394744 479.15915498 -102.5 477.625 C-103.15453156 477.47726135 -103.80906311 477.32952271 -104.48342896 477.17730713 C-115.9005361 474.60660407 -127.35793079 472.30847487 -138.85668945 470.13378906 C-145.68412854 468.8424042 -152.48698032 467.48572314 -159.27636719 466.00756836 C-172.35186754 463.16635556 -185.4901636 461.23174265 -198.74755859 459.45166016 C-201.96906677 459.00429564 -205.18134307 458.51514274 -208.39453125 458.01171875 C-235.4932727 453.80962137 -262.58415702 451.71172233 -290 451.6875 C-290.89850677 451.68409607 -291.79701355 451.68069214 -292.7227478 451.67718506 C-305.147319 451.65012962 -317.3465 452.43783739 -329.69682312 453.7668457 C-335.11974321 454.31581662 -340.56102728 454.65263704 -346 455 C-342.52931615 444.58794846 -323.0876881 436.26831421 -314 431 C-313.37931641 430.63664551 -312.75863281 430.27329102 -312.11914062 429.89892578 C-296.14582452 420.64025282 -278.50655711 413.7675204 -261 408 C-259.75089844 407.58838623 -259.75089844 407.58838623 -258.4765625 407.16845703 C-239.31776944 400.88617072 -239.31776944 400.88617072 -229.8125 398.671875 C-226.53584108 397.88911759 -223.30640088 396.97135154 -220.0625 396.0625 C-211.36189462 393.7299218 -202.55697568 392.11528817 -193.69970703 390.5 C-191.09672669 390.01791429 -188.49922104 389.51385553 -185.90234375 389 C-166.72570328 385.21817095 -147.41283521 382.26930753 -128 380 C-127.92483154 379.23671387 -127.84966309 378.47342773 -127.7722168 377.68701172 C-125.54660862 355.2425187 -122.97807498 333.00720806 -118.56787109 310.87207031 C-117.7223275 306.59564087 -116.90713217 302.31350364 -116.08911133 298.03173828 C-115.2486947 293.63789279 -114.40016194 289.24563575 -113.55078125 284.85351562 C-113.08279886 282.42896857 -112.61891672 280.00368963 -112.15625 277.578125 C-110.97965064 271.51608046 -109.65986243 265.5210584 -108.140625 259.53515625 C-106.78344628 254.15778902 -105.45793752 248.77480755 -104.17578125 243.37890625 C-100.29096759 227.05771102 -96.13378307 210.84075539 -91.65913391 194.67131042 C-91.47513535 194.00634048 -91.29113678 193.34137054 -91.1015625 192.65625 C-90.92034348 192.00171341 -90.73912445 191.34717682 -90.55241394 190.67280579 C-88.87516289 184.59271701 -87.3083454 178.48637954 -85.75 172.375 C-83.84926708 164.95671831 -81.67137144 157.72706788 -79.15625 150.49609375 C-77.52581674 145.56623643 -76.25243778 140.57058106 -74.9921875 135.53515625 C-74.08424736 132.30017266 -72.98629339 129.25623341 -71.78076172 126.12719727 C-70.37221604 122.28959298 -69.26911208 118.36033332 -68.125 114.4375 C-66.01764259 107.31525597 -63.79196355 100.25354637 -61.40625 93.21875 C-59.93541758 88.84951251 -58.54805347 84.45452605 -57.15478516 80.06005859 C-53.54418837 68.67358194 -49.73870535 57.37765182 -45.74755859 46.11962891 C-44.66332424 43.04538897 -43.60653752 39.96315307 -42.5625 36.875 C-42.25441406 35.96492188 -41.94632813 35.05484375 -41.62890625 34.1171875 C-40.90508311 32.0485696 -40.90508311 32.0485696 -41 30 C-49.76893873 30.51213324 -58.25412382 31.58220454 -66.875 33.25 C-68.03684814 33.47034912 -69.19869629 33.69069824 -70.39575195 33.91772461 C-85.5858048 36.83200499 -100.69726858 40.06847243 -115.6796875 43.9140625 C-119.00908339 44.76273204 -122.34909169 45.55628894 -125.6953125 46.3359375 C-137.32124743 49.05261938 -148.7987535 52.02899197 -160.2355957 55.45751953 C-167.71355948 57.67984659 -175.23383264 59.54652524 -182.83422852 61.29711914 C-188.54229001 62.62170533 -194.11858364 64.1736819 -199.69921875 65.96875 C-204.53795513 67.48049722 -209.42693779 68.79906891 -214.31762695 70.13134766 C-220.07608693 71.71084614 -225.74150343 73.48355801 -231.3984375 75.3984375 C-234.13929253 76.03220878 -235.36600983 75.77066786 -238 75 C-236.92621094 74.39671875 -235.85242188 73.7934375 -234.74609375 73.171875 C-233.30988856 72.36459627 -231.87369106 71.55730387 -230.4375 70.75 C-229.73302734 70.35425781 -229.02855469 69.95851563 -228.30273438 69.55078125 C-225.04608218 67.71985237 -221.79520626 65.88191235 -218.55859375 64.015625 C-214.29979883 61.57855679 -209.96521823 59.28797446 -205.625 57 C-204.82578125 56.57460937 -204.0265625 56.14921875 -203.203125 55.7109375 C-197.89279399 52.90969493 -192.51823403 50.36418458 -187 48 C-186.07574219 47.60296875 -185.15148437 47.2059375 -184.19921875 46.796875 C-181.13712585 45.52060611 -178.06920528 44.25907551 -175 43 C-174.30535645 42.71108887 -173.61071289 42.42217773 -172.89501953 42.12451172 C-160.03835767 36.78626837 -147.01919815 32.20918348 -133.78027344 27.9140625 C-131.28370427 27.09327264 -128.80030611 26.24434266 -126.3203125 25.375 C-115.02485763 21.43378468 -103.56447798 18.48158591 -91.93261719 15.70263672 C-89.22555416 15.05404136 -86.52251494 14.39116172 -83.8203125 13.72265625 C-25.90226806 -0.49600088 -25.90226806 -0.49600088 0 0 Z " fill="#3A999A" transform="translate(881,168)"/>
<path d="M0 0 C23.3250622 1.92071445 46.1722714 5.92752523 69 11 C70.68053467 11.36762451 70.68053467 11.36762451 72.39501953 11.74267578 C102.60083995 18.36889757 132.23980347 27.01809085 161.06933594 38.25097656 C163.21138742 39.08201019 165.35930812 39.89673875 167.5078125 40.7109375 C180.02884388 45.48041805 192.06463733 50.98677659 204.02392578 57.02124023 C210.28008756 60.16910466 216.61802831 63.1149991 223 66 C223 66.66 223 67.32 223 68 C223.78375 68.20625 224.5675 68.4125 225.375 68.625 C230.29273755 70.49034873 234.55842103 73.20865195 239 76 C235.43108838 77.26056691 233.2828614 76.72306328 229.73046875 75.55859375 C228.68874512 75.22520996 227.64702148 74.89182617 226.57373047 74.54833984 C225.45627441 74.1817627 224.33881836 73.81518555 223.1875 73.4375 C208.90624856 68.89769883 194.51213284 65.1015983 179.96875 61.5078125 C177.93744248 61.00544087 175.90619251 60.50283646 173.875 60 C172.87033691 59.75161377 171.86567383 59.50322754 170.83056641 59.24731445 C164.42865148 57.6496914 158.08292212 55.9133231 151.75 54.0625 C126.79360154 46.81495332 101.42753178 41.29792155 76 36 C74.28490234 35.64131836 74.28490234 35.64131836 72.53515625 35.27539062 C62.01251899 33.09713769 51.76614725 31.3618873 41 31 C41.82946763 33.38735924 42.65913374 35.77464927 43.48901367 38.16186523 C44.21210647 40.24201097 44.93491992 42.32225382 45.6574707 44.40258789 C47.39853126 49.41170785 49.14441962 54.41886717 50.9140625 59.41796875 C51.21368896 60.26649414 51.51331543 61.11501953 51.82202148 61.98925781 C52.37122809 63.54283859 52.92257018 65.09566743 53.47680664 66.64746094 C55.44765131 72.23080566 57.22277269 77.86942181 58.97540283 83.52410889 C60.57410624 88.67004219 62.22394402 93.79750796 63.90234375 98.91796875 C64.14840866 99.6692807 64.39447357 100.42059265 64.647995 101.19467163 C65.15279782 102.73593927 65.65762493 104.27719896 66.16247559 105.81845093 C69.93998849 117.36533033 73.6861512 128.9021845 76.92041016 140.61547852 C78.43472115 146.08897823 80.08760583 151.50485399 81.80053711 156.91943359 C85.91945976 169.9668291 89.45501178 183.11088015 92.7668457 196.38134766 C94.54489747 203.48310522 96.41695844 210.53086911 98.5234375 217.54296875 C100.9711065 225.71244091 103.01736425 233.9425678 104.9375 242.25 C105.10608521 242.97245911 105.27467041 243.69491821 105.44836426 244.43927002 C108.65991972 258.20699998 111.5937457 272.02440748 114.37255859 285.88623047 C114.93092027 288.65718178 115.50264396 291.42479124 116.08203125 294.19140625 C120.23616678 314.17556215 123.42551478 334.35141825 126.25 354.5625 C126.41306641 355.71999756 126.57613281 356.87749512 126.74414062 358.07006836 C127.78278452 365.69912875 128.49065111 373.31784819 129 381 C130.69636597 381.2333606 130.69636597 381.2333606 132.42700195 381.47143555 C153.49748498 384.37991969 174.512996 387.33399202 195.38232422 391.48144531 C197.73296845 391.94710175 200.08587645 392.3958039 202.44140625 392.8359375 C211.08094259 394.4840952 219.53495559 396.62302951 228 399 C228.77585449 399.21527344 229.55170898 399.43054688 230.35107422 399.65234375 C266.58821554 409.71940126 266.58821554 409.71940126 283 417 C284.91608693 417.77227327 286.83277594 418.54305408 288.75 419.3125 C299.46440691 423.77566293 310.01784135 429.0740836 320 435 C320.57717773 435.34256836 321.15435547 435.68513672 321.74902344 436.03808594 C330.75794151 441.42370595 339.09139576 447.06321577 347 454 C346.67 454.66 346.34 455.32 346 456 C341.64554024 455.6915011 337.29149473 455.37748884 332.9375 455.0625 C331.70837891 454.97548828 330.47925781 454.88847656 329.21289062 454.79882812 C328.01728516 454.71181641 326.82167969 454.62480469 325.58984375 454.53515625 C324.49534912 454.456604 323.40085449 454.37805176 322.27319336 454.29711914 C320.07246908 454.09735175 317.87746147 453.82163106 315.69506836 453.47485352 C311.20115351 452.89734018 306.81430026 452.85669465 302.2890625 452.8671875 C300.89945816 452.86575241 300.89945816 452.86575241 299.48178101 452.86428833 C297.52349784 452.86361005 295.56521239 452.86543973 293.60693359 452.86962891 C290.66889122 452.87492094 287.73100603 452.86970373 284.79296875 452.86328125 C270.08775022 452.85745306 255.50688065 453.40330801 240.875 454.9375 C240.12347656 455.01162109 239.37195313 455.08574219 238.59765625 455.16210938 C203.19866976 458.77245377 167.85009471 464.84771037 133.1171875 472.45703125 C126.91639767 473.81286144 120.7016963 475.09064215 114.48144531 476.35375977 C104.90228373 478.30102948 95.40455259 480.27786499 85.99609375 482.9375 C79.21177828 484.80450861 72.30663331 486.22609978 65.44433594 487.77368164 C58.56810822 489.34557802 51.88274825 491.09752297 45.22265625 493.43359375 C43 494 43 494 40 493 C39.2956543 491.08007812 39.2956543 491.08007812 38.82421875 488.53125 C38.63931885 487.58072754 38.45441895 486.63020508 38.26391602 485.65087891 C38.07369873 484.61108887 37.88348145 483.57129883 37.6875 482.5 C37.25593396 480.28841013 36.82093202 478.07748845 36.3828125 475.8671875 C36.15754883 474.72604492 35.93228516 473.58490234 35.70019531 472.40917969 C34.61321709 467.11679338 33.34749239 461.872261 32.0625 456.625 C30.24935868 449.2001689 28.48219371 441.76955375 26.79858398 434.31420898 C22.61489391 415.83242854 17.90119033 397.51070711 12.05639648 379.47998047 C10.5802387 374.91245236 9.25826162 370.33881005 8.0625 365.6875 C5.69242222 356.54294989 2.73600319 347.59157546 -0.16699219 338.60498047 C-1.12686732 335.60326075 -2.04913215 332.59123597 -2.96679688 329.57641602 C-4.97274127 323.0053039 -7.23186749 316.5693469 -9.69287109 310.15673828 C-11.94325539 304.25833217 -13.95179313 298.2912877 -15.90795898 292.28955078 C-17.4821449 287.47497727 -19.18655402 282.72939436 -21 278 C-21.26804443 277.29472168 -21.53608887 276.58944336 -21.81225586 275.86279297 C-24.93707195 267.66072096 -28.12466317 259.54191907 -31.83984375 251.5859375 C-33.06271089 248.86022018 -34.13453542 246.108176 -35.1875 243.3125 C-40.88246172 228.27564524 -47.11200037 213.40551406 -54.08300781 198.91503906 C-55.11573712 196.75829555 -56.13279896 194.59453046 -57.1484375 192.4296875 C-63.76631588 178.34106732 -70.62335432 164.40462785 -78.01171875 150.703125 C-79.32615016 148.26524246 -80.61959464 145.81813415 -81.89453125 143.359375 C-86.10784192 135.27201565 -90.67187206 127.46576237 -95.49536133 119.7253418 C-96.17828247 118.62766479 -96.17828247 118.62766479 -96.875 117.5078125 C-97.28492187 116.85441895 -97.69484375 116.20102539 -98.1171875 115.52783203 C-99 114 -99 114 -99 113 C-75.57 113 -52.14 113 -28 113 C-32.99216992 100.27132969 -32.99216992 100.27132969 -37.99072266 87.54516602 C-42.59826198 75.78823205 -47.00632688 63.98101937 -51 52 C-34.37666506 52.57281698 -17.80668826 53.5779677 -1.21728516 54.77246094 C5.18572881 55.22530727 11.59249749 55.6165589 18 56 C17.39724764 54.02040215 16.79271425 52.04134658 16.1875 50.0625 C15.85105469 48.96035156 15.51460938 47.85820312 15.16796875 46.72265625 C13.00683636 39.8344985 10.66420138 33.01250224 8.30078125 26.19140625 C7.93843636 25.1446447 7.93843636 25.1446447 7.56877136 24.07673645 C6.054268 19.70171097 6.054268 19.70171097 4.53491211 15.32836914 C3.78739047 13.17951063 3.04374067 11.02934566 2.30078125 8.87890625 C2.06958084 8.21750137 1.83838043 7.5560965 1.60017395 6.87464905 C0 2.2274359 0 2.2274359 0 0 Z " fill="#3A9A9B" transform="translate(182,167)"/>
<path d="M0 0 C6.38925283 2.01765879 12.57723555 4.38271459 18.76977539 6.93017578 C21.814125 8.17265419 24.7737652 9.33362405 28 10 C26.64084008 14.36928611 24.94503786 18.37260515 22.91796875 22.47265625 C22.30916539 23.7154559 21.70044418 24.95829579 21.09179688 26.20117188 C20.14596979 28.12128112 19.198391 30.04049989 18.2487793 31.95874023 C14.50585681 39.53395963 11.11891377 47.07463672 8.17700195 55.00732422 C6.73923997 58.66301524 4.98937486 62.09240775 3.1875 65.57861328 C1.14489725 69.74360795 -0.40990629 74.08413368 -2 78.4375 C-3.98084628 83.83651395 -6.02533078 89.14969406 -8.44140625 94.37109375 C-11.20806293 100.35741147 -13.59290844 106.46310883 -15.9375 112.625 C-16.37642578 113.77379639 -16.81535156 114.92259277 -17.26757812 116.10620117 C-20.65977443 125.02324304 -23.90112411 133.9776246 -27 143 C-27.76797655 145.22534761 -28.53623042 147.45059953 -29.3046875 149.67578125 C-30.59955199 153.42654377 -31.89356106 157.17758109 -33.18310547 160.93017578 C-35.14910267 166.6493567 -37.12216252 172.36548516 -39.140625 178.06640625 C-43.02537428 189.05493988 -46.63046561 200.09224804 -50.00048828 211.25 C-51.88707489 217.47287874 -53.87808649 223.64126554 -56.00024414 229.78759766 C-59.94996678 241.24420463 -63.11971886 252.80535719 -66.06152344 264.55004883 C-68.07535535 272.5661508 -70.27750601 280.48799796 -72.75 288.375 C-75.2041723 296.21052017 -77.30274153 304.03575573 -79.09375 312.046875 C-80.28439749 317.35210521 -81.73131923 322.58521282 -83.16796875 327.828125 C-83.88029648 330.54366547 -84.48659089 333.24107426 -85 336 C-90.77026547 335.12116197 -96.3160098 333.9823635 -101.875 332.1875 C-127.0804642 324.18904473 -153.8005238 319.26419703 -180 316 C-180 315.67 -180 315.34 -180 315 C-166.56735199 314.75601648 -153.21924671 315.07997446 -139.8125 315.875 C-138.76656174 315.9339444 -138.76656174 315.9339444 -137.69949341 315.99407959 C-126.22363711 316.65086549 -115.11516823 318.0227228 -104 321 C-102.6672206 321.33554129 -101.33401884 321.66942077 -100 322 C-97.77807151 314.54235704 -95.73671043 307.08527477 -94 299.5 C-92.53998061 293.1450398 -90.88783225 286.88078569 -89.0546875 280.62109375 C-87.89299681 276.63262239 -86.78860205 272.6304967 -85.6875 268.625 C-83.40505077 260.35415075 -81.00244489 252.12020044 -78.58666992 243.88745117 C-76.83875176 237.91757268 -75.13958905 231.93794523 -73.5 225.9375 C-71.36995422 218.16093185 -69.02932407 210.45517338 -66.65844727 202.74902344 C-64.66551857 196.25107105 -62.77328023 189.73140263 -60.9375 183.1875 C-58.93258831 176.06186398 -56.72611655 169.04201479 -54.32666016 162.0402832 C-51.78434829 154.54021443 -49.60530599 146.93941154 -47.44750977 139.32104492 C-46.06213509 134.46757104 -44.5929405 129.71628491 -42.76586914 125.01123047 C-41.24191205 121.00920353 -39.91571247 116.93723832 -38.5625 112.875 C-38.25103027 111.94196045 -37.93956055 111.0089209 -37.61865234 110.04760742 C-36.00179672 105.16284596 -34.4739427 100.27934432 -33.125 95.3125 C-30.71549359 86.65239119 -27.66365994 78.21562279 -24.6953125 69.734375 C-22.70546491 64.04524031 -20.74658489 58.34629398 -18.8046875 52.640625 C-18.52938705 51.83187927 -18.25408661 51.02313354 -17.97044373 50.18988037 C-17.55424522 48.96715424 -17.55424522 48.96715424 -17.12963867 47.71972656 C-2.77669526 5.55339053 -2.77669526 5.55339053 0 0 Z " fill="#FAFCFC" transform="translate(904,295)"/>
<path d="M0 0 C4.26134768 3.47491871 5.34914715 7.17577661 6.875 12.25 C7.39454902 13.89274732 7.91673245 15.53466354 8.44140625 17.17578125 C8.70195801 17.9951416 8.96250977 18.81450195 9.23095703 19.65869141 C10.31702704 22.9651712 11.5564801 26.19133221 12.8125 29.4375 C15.9092569 37.51635305 18.6103367 45.71888383 21.3203125 53.93408203 C23.46549194 60.4259313 25.64392724 66.90323242 27.8828125 73.36328125 C28.12661148 74.06754242 28.37041046 74.77180359 28.62159729 75.49740601 C29.80746637 78.92059853 30.99779114 82.34215858 32.1940918 85.76171875 C34.71761228 93.01432963 36.9863331 100.29642755 39.05053711 107.69311523 C40.49577919 112.72674958 42.18099732 117.6707144 43.875 122.625 C46.65461864 130.85061219 49.27068937 139.09996417 51.71264648 147.43139648 C53.62851865 153.90685184 55.76288033 160.29490367 57.9375 166.6875 C61.05371499 175.88417046 63.7944337 185.13748648 66.35522461 194.50268555 C68.42687825 202.04954932 70.66786145 209.5297814 73 217 C76.92277653 229.59854686 80.5139647 242.27450291 84 255 C84.38236816 256.390979 84.38236816 256.390979 84.77246094 257.81005859 C86.26255921 263.2327374 87.74032656 268.65865565 89.20996094 274.08691406 C90.06612219 277.24381025 90.9276435 280.39922218 91.7890625 283.5546875 C97.59486529 304.89814473 97.59486529 304.89814473 99.75830078 315.1027832 C100.5887827 318.94635641 100.5887827 318.94635641 103 322 C103.9590625 321.566875 103.9590625 321.566875 104.9375 321.125 C112.75742423 318.25237477 120.73795967 317.52393641 129 316.9375 C130.10649902 316.85516113 131.21299805 316.77282227 132.35302734 316.68798828 C135.5682399 316.45188499 138.78404316 316.22569033 142 316 C143.53387511 315.88439206 145.06773208 315.76854302 146.6015625 315.65234375 C158.39423632 314.81091144 170.1839449 314.89817797 182 315 C177.85455664 317.26828323 173.75648719 317.68875366 169.125 318.25 C144.65449183 321.48492124 120.56378905 327.07586645 96.91381836 334.0703125 C96.05925049 334.32039063 95.20468262 334.57046875 94.32421875 334.828125 C93.56197998 335.0540332 92.79974121 335.27994141 92.0144043 335.51269531 C90 336 90 336 87 336 C86.83918945 335.31599121 86.67837891 334.63198242 86.51269531 333.92724609 C82.60210565 317.23870557 82.60210565 317.23870557 78.0625 300.71484375 C76.61291215 295.64661565 75.31351567 290.54241037 74 285.4375 C72.18095027 278.39037076 70.2687232 271.41143465 68.0546875 264.4765625 C66.63135092 259.78482341 65.38923723 255.04915936 64.125 250.3125 C62.11025111 242.81189214 59.90352063 235.43121297 57.38232422 228.08642578 C55.18732698 221.66392268 53.21378445 215.18395324 51.25 208.6875 C47.24888599 195.53172101 42.79181787 182.55189722 38.24804688 169.57519531 C37.02504957 166.07175782 35.81475051 162.56422298 34.609375 159.0546875 C30.23040794 146.30848512 25.76098084 133.6086165 21 121 C20.76543091 120.37770508 20.53086182 119.75541016 20.28918457 119.11425781 C18.61377354 114.67037556 16.93216048 110.2288911 15.24475098 105.78955078 C14.67298238 104.28441508 14.10223266 102.77889185 13.53259277 101.27294922 C10.58794317 93.4953516 7.56316368 85.82106667 4.04541016 78.27978516 C2.27303365 74.4146633 0.85996512 70.42611849 -0.59375 66.43359375 C-1.75189343 63.60579354 -3.00545638 60.9468281 -4.38671875 58.2265625 C-6.92807872 53.21858843 -9.14648189 48.11661804 -11.3125 42.9375 C-14.53457205 35.30897136 -17.90379737 27.77774716 -21.5246582 20.32983398 C-23.00298251 17.26270289 -24.38340944 14.36555681 -25 11 C-16.85897838 6.73146434 -8.6356514 3.14783422 0 0 Z " fill="#FAFCFC" transform="translate(158,295)"/>
</svg>
